HIERARCHY
ROOT Hips
{
    OFFSET 0.000000 0.000000 0.000000
    CHANNELS 6 Xposition Yposition Zposition Zrotation Yrotation Xrotation
    JOINT LeftUpLeg
    {
        OFFSET 9.162498 -10.205075 3.799697
        CHANNELS 3 Zrotation Yrotation Xrotation
        JOINT LeftLeg
        {
            OFFSET 14.513953 -39.876781 0.000000
            CHANNELS 3 Zrotation Yrotation Xrotation
            JOINT LeftFoot
            {
                OFFSET 14.224848 -39.082561 0.000000
                CHANNELS 3 Zrotation Yrotation Xrotation
                JOINT LeftToeBase
                {
                    OFFSET 1.314863 -3.612473 11.865319
                    CHANNELS 3 Zrotation Yrotation Xrotation
                    End Site
                    {
                        OFFSET 0.000000 0.000000 0.000000
                    }
                }
            }
        }
    }
    JOINT RightUpLeg
    {
        OFFSET -8.357156 -10.205075 3.799697
        CHANNELS 3 Zrotation Yrotation Xrotation
        JOINT RightLeg
        {
            OFFSET -14.859335 -40.825722 0.000000
            CHANNELS 3 Zrotation Yrotation Xrotation
            JOINT RightFoot
            {
                OFFSET -14.380747 -39.510799 0.000000
                CHANNELS 3 Zrotation Yrotation Xrotation
                JOINT RightToeBase
                {
                    OFFSET -1.301994 -3.577195 11.975215
                    CHANNELS 3 Zrotation Yrotation Xrotation
                    End Site
                    {
                        OFFSET 0.000000 0.000000 0.000000
                    }
                }
            }
        }
    }
    JOINT Spine
    {
        OFFSET -0.118984 11.716251 -0.958476
        CHANNELS 3 Zrotation Yrotation Xrotation
        JOINT Spine1
        {
            OFFSET 0.286171 11.765131 -0.177291
            CHANNELS 3 Zrotation Yrotation Xrotation
            JOINT Neck1
            {
                OFFSET -0.605701 9.054070 1.770648
                CHANNELS 3 Zrotation Yrotation Xrotation
                JOINT Head
                {
                    OFFSET 0.474750 9.351585 -1.739717
                    CHANNELS 3 Zrotation Yrotation Xrotation
                    End Site
                    {
                        OFFSET 0.000000 0.000000 0.000000
                    }
                }
            }
            JOINT LeftShoulder
            {
                OFFSET 0.000000 0.000000 0.000000
                CHANNELS 3 Zrotation Yrotation Xrotation
                JOINT LeftArm
                {
                    OFFSET 19.886068 4.132773 -3.087148
                    CHANNELS 3 Zrotation Yrotation Xrotation
                    JOINT LeftForeArm
                    {
                        OFFSET 30.054285 -0.000000 -0.000000
                        CHANNELS 3 Zrotation Yrotation Xrotation
                        JOINT LeftHand
                        {
                            OFFSET 19.665203 -0.000000 -0.000000
                            CHANNELS 3 Zrotation Yrotation Xrotation
                            End Site
                            {
                                OFFSET 0.000000 0.000000 0.000000
                            }
                        }
                    }
                }
            }
            JOINT RightShoulder
            {
                OFFSET 0.000000 0.000000 0.000000
                CHANNELS 3 Zrotation Yrotation Xrotation
                JOINT RightArm
                {
                    OFFSET -19.290640 5.282707 -0.565512
                    CHANNELS 3 Zrotation Yrotation Xrotation
                    JOINT RightForeArm
                    {
                        OFFSET -30.117897 -0.000000 -0.000000
                        CHANNELS 3 Zrotation Yrotation Xrotation
                        JOINT RightHand
                        {
                            OFFSET -20.553181 -0.000000 -0.000000
                            CHANNELS 3 Zrotation Yrotation Xrotation
                            End Site
                            {
                                OFFSET 0.000000 0.000000 0.000000
                            }
                        }
                    }
                }
            }
        }
    }
}
MOTION
Frames: 18
Frame Time: 0.016667
2.098588 70.212379 -35.091801 8.253900 -20.516500 -0.815200 0.385300 1.158900 -37.388901 19.276810 19.987509 87.885017 2.758698 -20.984400 -31.357403 5.244702 -13.654206 -41.869423 -20.452106 8.923803 -52.907917 -16.828703 -19.757109 80.691628 -0.323802 19.399103 -16.270315 -2.450200 9.746804 -28.160610 2.479732 -2.097088 31.562786 5.222900 -0.071500 -8.222400 -6.574791 2.589683 -7.186858 2.169899 0.703500 8.047600 0.000000 0.000000 0.000000 -84.262299 -33.326302 21.166403 149.626907 -41.211098 -108.345291 0.000000 0.000000 -0.925300 0.000000 0.000000 0.000000 75.606003 19.623802 20.936300 -153.169998 38.016598 -110.605804 0.000000 0.000000 -13.036500 
1.890310 71.104195 -34.690483 8.679104 -21.651300 -0.917500 -0.473500 1.803000 -36.306702 18.718996 19.960604 86.252403 2.473200 -20.644608 -29.844299 5.025700 -13.412600 -40.933399 -20.355602 9.617906 -52.323921 -16.302294 -19.668995 79.131195 -0.207900 19.581993 -15.478807 -2.367600 9.593103 -27.668711 2.981832 -2.772767 31.110289 5.706299 -0.206000 -7.961401 -6.888676 3.612806 -7.176393 2.187502 1.003000 7.888403 0.000000 0.000000 0.000000 -83.908592 -32.020393 19.617302 150.260406 -40.669102 -108.760498 0.000000 0.000000 -1.011200 0.000000 0.000000 0.000000 75.200302 17.903202 19.180502 -152.802505 38.366810 -110.378609 0.000000 0.000000 -14.050100 
1.666227 72.194130 -34.203373 9.036998 -22.782900 -1.117399 -1.399100 2.699901 -34.857498 18.060905 19.909599 84.322227 2.278203 -20.046703 -28.675211 4.842199 -13.203900 -40.136501 -20.054905 10.489208 -51.296001 -15.655904 -19.541403 77.204720 -0.119700 19.513208 -14.727295 -2.099000 9.069400 -26.012699 3.513955 -3.170565 30.736580 6.080303 -0.244900 -8.167204 -7.331580 4.374766 -6.695403 2.050201 1.225701 8.046703 0.000000 0.000000 0.000000 -84.030899 -30.373295 18.762199 150.853806 -40.150299 -109.145103 0.000000 0.000000 -1.018600 0.000000 0.000000 0.000000 74.741524 15.268707 16.909613 -152.247101 38.887798 -110.031799 0.000000 0.000000 -15.482207 
1.424082 73.368736 -33.769318 9.383108 -23.843412 -1.329601 -2.337900 3.593700 -33.411999 17.332201 19.828501 82.178307 1.949003 -19.710411 -26.807913 4.698101 -13.035603 -39.501720 -19.711908 11.488903 -50.051918 -14.922606 -19.370306 75.003502 -0.056600 19.248514 -14.025504 -1.791501 8.417506 -23.989492 3.883190 -3.517886 30.323864 6.198402 -0.312700 -8.154910 -7.745401 5.048239 -6.581539 1.821601 1.439701 7.955004 0.000000 0.000000 0.000000 -83.858047 -29.150209 17.882809 151.370605 -39.689301 -109.476799 0.000000 0.000000 -0.693900 0.000000 0.000000 0.000000 74.606499 12.574504 14.489999 -151.579407 39.500500 -109.609917 0.000000 0.000000 -17.188602 
1.179115 74.659042 -33.274868 10.006204 -24.969210 -1.388999 -3.681101 4.617601 -32.215199 16.565203 19.714804 79.911339 1.667300 -19.037209 -25.004606 4.401199 -12.675908 -38.167202 -19.704000 12.407999 -48.907700 -14.121295 -19.150400 72.574509 0.000199 18.945911 -13.326006 -1.639101 8.070105 -22.927208 3.799845 -3.595509 29.322491 6.375598 -0.360400 -7.781400 -8.283774 5.738395 -6.440263 1.625301 1.655301 7.967697 0.000000 0.000000 0.000000 -83.898499 -28.076799 17.111698 151.975403 -39.138908 -109.860809 0.000000 0.000000 -0.336800 0.000000 0.000000 0.000000 74.599442 10.072104 11.686804 -150.462402 40.493801 -108.891899 0.000000 0.000000 -18.668301 
0.949388 75.891220 -32.839119 10.311604 -25.592014 -1.409500 -4.704300 5.354301 -31.114500 15.745006 19.560312 77.471016 1.370400 -18.091093 -22.903597 4.242899 -12.476796 -37.440399 -19.350502 13.089602 -47.446926 -13.282807 -18.881914 70.001518 -0.005100 18.221500 -12.860007 -1.628600 8.045403 -22.851908 3.945768 -4.002021 28.523149 6.523802 -0.455700 -7.862504 -8.883124 6.584074 -6.023194 1.612100 1.896201 8.011896 0.000000 0.000000 0.000000 -84.137321 -26.735914 16.480400 152.493896 -38.657616 -110.186394 0.000000 0.000000 0.096000 0.000000 0.000000 0.000000 74.653008 7.030503 9.311006 -148.490097 42.152996 -107.589302 0.000000 0.000000 -19.439600 
0.728692 77.256592 -32.315319 10.580300 -26.139305 -1.512500 -5.732103 5.854601 -29.637926 14.844800 19.350500 74.768799 1.159201 -17.190302 -21.229010 3.813599 -11.908204 -35.407894 -18.883106 13.494109 -45.644005 -12.377909 -18.545898 67.181740 0.010800 17.718210 -12.355701 -1.586400 7.945603 -22.548910 4.066743 -4.290212 27.618380 6.387802 -0.559600 -7.618907 -9.441652 7.240736 -5.944336 1.432100 2.100800 8.069196 0.000000 0.000000 0.000000 -84.048996 -25.886206 15.788208 153.009399 -38.170208 -110.506706 0.000000 0.000000 0.265300 0.000000 0.000000 0.000000 75.135902 3.955296 6.838498 -145.539200 44.423309 -105.565414 0.000000 0.000000 -20.679600 
0.522107 78.604477 -31.787003 10.697201 -26.769310 -1.549199 -6.621901 6.529400 -28.117296 13.895100 19.081903 71.883904 1.051101 -15.702303 -19.976210 3.601000 -11.609604 -34.364498 -18.326704 14.312509 -43.704922 -11.456106 -18.151201 64.254227 -0.010200 16.822508 -11.923300 -1.464001 7.646905 -21.646711 4.209527 -4.147946 26.639688 6.427202 -0.526500 -7.466004 -10.075820 7.797931 -5.671531 1.396200 2.262500 8.123100 0.000000 0.000000 0.000000 -84.346428 -25.214106 15.294706 153.399704 -37.795315 -110.746895 0.000000 0.000000 0.644900 0.000000 0.000000 0.000000 75.558517 0.522300 4.287902 -141.500107 47.155602 -102.668800 0.000000 0.000000 -23.932711 
0.330762 79.980583 -31.298199 10.715705 -27.030510 -1.482500 -7.414899 6.917001 -26.668301 12.923799 18.754509 68.888603 0.917901 -14.585599 -18.625208 3.538001 -11.518901 -34.050392 -17.696310 14.834302 -41.593998 -10.519608 -17.691908 61.211330 -0.009801 15.984108 -11.330800 -1.099401 6.662704 -18.720013 4.214598 -4.288740 25.564783 6.319602 -0.596600 -7.207100 -10.563710 8.330585 -5.478175 1.205900 2.425700 8.334304 0.000000 0.000000 0.000000 -84.316940 -24.776806 14.544805 153.759995 -37.444801 -110.966797 0.000000 0.000000 0.383700 0.000000 0.000000 0.000000 76.319908 -2.783800 2.033399 -136.001801 50.268208 -98.534508 0.000000 0.000000 -29.318403 
0.145061 81.395073 -30.822376 10.649798 -26.333405 -1.753700 -8.061200 6.453100 -24.746700 11.928804 18.360416 65.763100 0.767700 -13.561707 -17.093212 3.523302 -11.497509 -33.976604 -16.772507 14.710103 -38.569302 -9.569103 -17.160299 58.038311 -0.070200 14.756201 -11.136506 -0.911800 6.084700 -17.030306 4.134388 -4.914028 24.895889 6.330300 -0.777901 -7.235800 -10.993333 8.931018 -5.180579 1.208300 2.592100 8.417000 0.000000 0.000000 0.000000 -84.311607 -24.340311 13.829397 154.084595 -37.125114 -111.163498 0.000000 0.000000 0.236700 0.000000 0.000000 0.000000 76.565506 -7.726601 0.889500 -129.459702 53.211102 -93.393799 0.000000 0.000000 -35.269402 
-0.081844 82.761574 -30.366873 10.478004 -25.947607 -1.766601 -8.523401 6.437603 -23.131411 10.977400 17.924004 62.708092 0.605599 -12.800900 -15.430999 3.395200 -11.308900 -33.328899 -15.820603 14.847607 -35.948204 -8.651502 -16.578108 54.876797 -0.152000 13.182104 -11.063404 -0.829000 5.808800 -16.230598 3.910623 -4.876831 23.916548 6.516002 -0.781700 -7.144904 -11.375216 9.184429 -4.922624 1.268100 2.653702 8.628306 0.000000 0.000000 0.000000 -84.518608 -24.075003 13.581705 154.371399 -36.839607 -111.336006 0.000000 0.000000 0.597400 0.000000 0.000000 0.000000 78.970497 -9.721199 -3.019500 -118.193527 56.772442 -84.151726 0.000000 0.000000 -37.382515 
-0.315522 84.078979 -29.968945 9.860102 -25.263613 -1.575901 -8.520705 6.316004 -21.785698 10.112603 17.472698 59.863998 0.492001 -11.691604 -13.955100 3.469201 -11.418501 -33.704514 -14.446511 14.883200 -33.276733 -7.804297 -15.973403 51.854614 -0.241000 11.405004 -11.138103 -0.770101 5.603601 -15.638504 3.835542 -4.989322 22.925755 6.726298 -0.816400 -7.065198 -11.615463 9.542713 -4.741496 1.352100 2.744899 8.760196 0.000000 0.000000 0.000000 -84.402412 -23.723705 12.728602 154.798309 -36.409420 -111.590714 0.000000 0.000000 1.143801 0.000000 0.000000 0.000000 80.568611 -12.342097 -6.176904 -103.927002 59.254322 -72.030899 0.000000 0.000000 -38.458500 
-0.597178 85.358009 -29.613911 9.309703 -24.282307 -1.396801 -8.512199 5.947701 -20.485796 9.295502 16.994200 57.106701 0.381100 -10.522800 -12.360800 3.390402 -11.301703 -33.304199 -13.166498 14.734700 -30.695486 -7.054703 -15.377810 49.080811 -0.325600 9.253507 -11.248908 -0.818700 5.773602 -16.128901 3.243719 -5.198323 22.040413 7.537503 -0.820601 -7.687002 -12.064708 10.078228 -4.089816 1.423100 2.875100 8.806204 0.000000 0.000000 0.000000 -84.323990 -22.773909 11.821194 155.165604 -36.034325 -111.807709 0.000000 0.000000 0.909000 0.000000 0.000000 0.000000 81.752800 -14.924799 -9.190801 -87.438118 59.975235 -57.781517 0.000000 0.000000 -41.223499 
-0.888993 86.612198 -29.313627 8.281303 -22.961399 -1.028900 -8.030700 5.454702 -19.376499 8.464401 16.450411 54.218700 0.346900 -8.252800 -11.189391 3.646100 -11.673898 -34.587898 -11.467501 14.496995 -28.196009 -6.436704 -14.838601 46.710026 -0.352500 7.132798 -10.966198 -0.683600 5.286101 -14.726299 3.192366 -5.092519 20.971594 7.762002 -0.818600 -7.207002 -12.126174 10.283331 -4.261956 1.733301 2.911100 9.154896 0.000000 0.000000 0.000000 -83.611198 -23.238598 11.063299 155.149506 -36.050800 -111.798210 0.000000 0.000000 0.838500 0.000000 0.000000 0.000000 83.560997 -15.880097 -13.175797 -71.178207 58.618206 -43.775387 0.000000 0.000000 -45.942101 
-1.192662 87.739937 -28.967627 7.660404 -21.422407 -0.965300 -8.039900 5.159300 -18.118103 7.558801 15.784999 50.957500 0.337400 -6.071500 -10.541000 4.196399 -12.417201 -37.224304 -10.365802 14.088700 -25.862003 -5.987001 -14.415707 44.929298 -0.322800 5.309204 -10.212106 -0.456800 4.335498 -12.022604 2.657077 -4.753427 19.833784 7.507200 -0.853200 -5.974800 -11.991974 9.873526 -5.178526 1.766600 2.817800 9.259296 0.000000 0.000000 0.000000 -82.118500 -24.412399 9.918900 155.020798 -36.182701 -111.722389 0.000000 0.000000 0.010800 0.000000 0.000000 0.000000 85.919823 -15.705306 -17.622900 -57.979317 55.747005 -32.665302 0.000000 0.000000 -51.296001 
-1.504797 88.805038 -28.653233 6.885504 -19.229601 -0.997900 -7.872102 4.379202 -16.767700 6.639805 15.020906 47.498318 0.313400 -4.125404 -9.962204 3.272699 -11.123902 -32.698898 -9.172905 13.295008 -23.489101 -5.659900 -14.090507 43.601204 -0.282100 3.349901 -9.439304 -0.396700 4.044202 -11.201104 1.902161 -4.932077 19.036371 7.751500 -0.972400 -5.332400 -11.886143 9.826083 -5.676660 2.106000 2.787102 9.512004 0.000000 0.000000 0.000000 -80.627090 -24.989401 8.300900 155.142593 -36.057896 -111.794212 0.000000 0.000000 -0.886900 0.000000 0.000000 0.000000 87.847809 -16.202309 -21.525303 -49.848427 52.934208 -26.053116 0.000000 0.000000 -54.697708 
-1.827657 89.799026 -28.377785 5.809402 -16.320719 -0.834101 -7.377400 2.893500 -15.840399 5.825799 14.257300 44.278301 0.262900 -1.954000 -9.202600 3.053301 -10.780900 -31.544399 -7.721701 12.189002 -21.140001 -5.401503 -13.822104 42.529602 -0.241800 1.307500 -8.921100 -0.315000 3.607902 -9.976104 1.364566 -5.268277 18.028477 8.159007 -1.085701 -5.161301 -11.655688 9.359903 -5.459196 2.435999 2.614398 9.702900 0.000000 0.000000 0.000000 -79.526642 -25.009413 7.204004 155.175522 -36.024101 -111.813522 0.000000 0.000000 -1.045700 0.000000 0.000000 0.000000 89.481697 -16.000898 -27.006903 -42.546715 49.508415 -20.355412 0.000000 0.000000 -55.143505 
-2.148259 90.730904 -28.122660 4.402100 -12.421396 -0.508600 -6.496998 0.612900 -15.440801 5.160901 13.562803 41.513401 0.239700 0.135700 -9.297496 3.393403 -11.306205 -33.319714 -5.908003 10.819500 -18.642401 -5.168501 -13.571110 41.545807 -0.223400 -0.897000 -9.300000 -0.127600 2.302602 -6.342800 1.090037 -5.759483 16.814323 8.558802 -1.220700 -5.131199 -10.986719 8.324536 -4.802624 2.827101 2.253599 10.007304 0.000000 0.000000 0.000000 -78.760506 -25.084497 6.933498 155.102112 -36.099510 -111.770340 0.000000 0.000000 -1.058200 0.000000 0.000000 0.000000 90.431610 -15.351502 -33.053104 -36.332607 45.740623 -15.760207 0.000000 0.000000 -57.546013 
